<svg xmlns="http://www.w3.org/2000/svg" viewBox="0 0 64 64" width="50px" height="50px">
  <path d="M 13 6 C 9.1482075 6 6 9.1482075 6 13 L 6 51 C 6 54.851793 9.1482075 58 13 58 L 51 58 C 54.851793 58 58 54.851793 58 51 L 58 13 C 58 9.1482075 54.851793 6 51 6 L 13 6 z M 13 8 L 51 8 C 53.768207 8 56 10.231793 56 13 L 56 51 C 56 53.768207 53.768207 56 51 56 L 13 56 C 10.231793 56 8 53.768207 8 51 L 8 13 C 8 10.231793 10.231793 8 13 8 z M 16 11 C 14.416667 11 13.101892 11.629756 12.251953 12.585938 C 11.402014 13.542118 11 14.777778 11 16 C 11 17.222222 11.402014 18.457881 12.251953 19.414062 C 13.101892 20.370244 14.416667 21 16 21 C 17.583333 21 18.898108 20.370244 19.748047 19.414062 C 20.597986 18.457881 21 17.222222 21 16 C 21 14.777778 20.597986 13.542119 19.748047 12.585938 C 18.898108 11.629755 17.583333 11 16 11 z M 16 13 C 17.083333 13 17.768559 13.370244 18.251953 13.914062 C 18.735347 14.457882 19 15.222222 19 16 C 19 16.777778 18.735347 17.542119 18.251953 18.085938 C 17.768559 18.629756 17.083333 19 16 19 C 14.916667 19 14.231441 18.629756 13.748047 18.085938 C 13.264653 17.542119 13 16.777778 13 16 C 13 15.222222 13.264653 14.457881 13.748047 13.914062 C 14.231441 13.370245 14.916667 13 16 13 z M 16 14.5 A 1.5 1.5 0 0 0 16 17.5 A 1.5 1.5 0 0 0 16 14.5 z M 25 15 A 1.0001 1.0001 0 1 0 25 17 L 52 17 A 1.0001 1.0001 0 1 0 52 15 L 25 15 z M 16 24 C 14.416667 24 13.101892 24.629756 12.251953 25.585938 C 11.402014 26.542119 11 27.777778 11 29 C 11 30.222222 11.402014 31.457882 12.251953 32.414062 C 13.101892 33.370244 14.416667 34 16 34 C 17.583333 34 18.898108 33.370244 19.748047 32.414062 C 20.597986 31.457881 21 30.222222 21 29 C 21 27.777778 20.597986 26.542118 19.748047 25.585938 C 18.898108 24.629756 17.583333 24 16 24 z M 16 26 C 17.083333 26 17.768559 26.370244 18.251953 26.914062 C 18.735347 27.457881 19 28.222222 19 29 C 19 29.777778 18.735347 30.542118 18.251953 31.085938 C 17.768559 31.629756 17.083333 32 16 32 C 14.916667 32 14.231441 31.629756 13.748047 31.085938 C 13.264653 30.542119 13 29.777778 13 29 C 13 28.222222 13.264653 27.457882 13.748047 26.914062 C 14.231441 26.370244 14.916667 26 16 26 z M 16 27.5 A 1.5 1.5 0 0 0 16 30.5 A 1.5 1.5 0 0 0 16 27.5 z M 25 28 A 1.0001 1.0001 0 1 0 25 30 L 52 30 A 1.0001 1.0001 0 1 0 52 28 L 25 28 z M 16 37 C 14.416667 37 13.101892 37.629756 12.251953 38.585938 C 11.402014 39.542119 11 40.777778 11 42 C 11 43.222222 11.402014 44.457881 12.251953 45.414062 C 13.101892 46.370244 14.416667 47 16 47 C 17.583333 47 18.898108 46.370245 19.748047 45.414062 C 20.597986 44.457881 21 43.222222 21 42 C 21 40.777778 20.597986 39.542119 19.748047 38.585938 C 18.898108 37.629756 17.583333 37 16 37 z M 16 39 C 17.083333 39 17.768559 39.370244 18.251953 39.914062 C 18.735347 40.457881 19 41.222222 19 42 C 19 42.777778 18.735347 43.542119 18.251953 44.085938 C 17.768559 44.629756 17.083333 45 16 45 C 14.916667 45 14.231441 44.629755 13.748047 44.085938 C 13.264653 43.542119 13 42.777778 13 42 C 13 41.222222 13.264653 40.457881 13.748047 39.914062 C 14.231441 39.370244 14.916667 39 16 39 z M 16 40.5 A 1.5 1.5 0 0 0 16 43.5 A 1.5 1.5 0 0 0 16 40.5 z M 25 41 A 1.0001 1.0001 0 1 0 25 43 L 52 43 A 1.0001 1.0001 0 1 0 52 41 L 25 41 z M 12 49 C 11.448 49 11 49.448 11 50 L 11 52 C 11 52.552 11.448 53 12 53 C 12.552 53 13 52.552 13 52 L 13 50 C 13 49.448 12.552 49 12 49 z M 17 49 C 16.448 49 16 49.448 16 50 L 16 52 C 16 52.552 16.448 53 17 53 C 17.552 53 18 52.552 18 52 L 18 50 C 18 49.448 17.552 49 17 49 z M 22 49 C 21.448 49 21 49.448 21 50 L 21 52 C 21 52.552 21.448 53 22 53 C 22.552 53 23 52.552 23 52 L 23 50 C 23 49.448 22.552 49 22 49 z M 27 49 C 26.448 49 26 49.448 26 50 L 26 52 C 26 52.552 26.448 53 27 53 C 27.552 53 28 52.552 28 52 L 28 50 C 28 49.448 27.552 49 27 49 z M 32 49 C 31.448 49 31 49.448 31 50 L 31 52 C 31 52.552 31.448 53 32 53 C 32.552 53 33 52.552 33 52 L 33 50 C 33 49.448 32.552 49 32 49 z M 37 49 C 36.448 49 36 49.448 36 50 L 36 52 C 36 52.552 36.448 53 37 53 C 37.552 53 38 52.552 38 52 L 38 50 C 38 49.448 37.552 49 37 49 z M 42 49 C 41.448 49 41 49.448 41 50 L 41 52 C 41 52.552 41.448 53 42 53 C 42.552 53 43 52.552 43 52 L 43 50 C 43 49.448 42.552 49 42 49 z M 47 49 C 46.448 49 46 49.448 46 50 L 46 52 C 46 52.552 46.448 53 47 53 C 47.552 53 48 52.552 48 52 L 48 50 C 48 49.448 47.552 49 47 49 z M 52 49 C 51.448 49 51 49.448 51 50 L 51 52 C 51 52.552 51.448 53 52 53 C 52.552 53 53 52.552 53 52 L 53 50 C 53 49.448 52.552 49 52 49 z" fill="#FFFFFF" />
</svg>